<?xml version="1.0" encoding="utf-8"?>
<!-- Generator: Adobe Illustrator 19.0.0, SVG Export Plug-In . SVG Version: 6.00 Build 0)  -->
<svg version="1.1" id="Шар_1" xmlns="http://www.w3.org/2000/svg" xmlns:xlink="http://www.w3.org/1999/xlink" x="0px" y="0px"
	 viewBox="0 0 267.3 241.6" style="enable-background:new 0 0 267.3 241.6;" xml:space="preserve">
<g id="_x38_vcVhs_1_">
	<g>
		<path d="M24.5,128.6c0-4.9,0-9.8,0-14.7c0.1-0.6,0.3-1.1,0.4-1.7c0.9-6.1,1.6-12.2,2.8-18.2c2.7-13,7.9-25.1,14.9-36.4
			c7.5-12.1,16.9-22.6,28-31.5c13.3-10.5,28.1-18,44.5-22.3c13.8-3.6,27.8-4.7,42.1-3.4c16.5,1.5,32,6.2,46.6,14.1
			c16.4,8.9,30.1,21,40.9,36.3c11.6,16.3,18.9,34.4,21.4,54.4c0.4,2.9,0.8,5.7,1.2,8.6c0,4.9,0,9.8,0,14.7c-0.1,0.6-0.3,1.3-0.4,1.9
			c-0.6,4.5-0.9,9-1.8,13.4c-2.9,15-8.3,29-16.5,41.9c-10.1,16.1-23.3,29.1-39.4,39c-13.6,8.4-28.4,13.9-44.2,16.2
			c-1.2,0.2-2.5,0.4-3.8,0.6c0-30.1,0-59.9,0-89.8c13.9,0,27.7,0,41.6,0c1.3-10.2,2.5-20.3,3.8-30.5c-15.3,0-30.3,0-45.5,0
			c0-4.9,0-9.5,0-14.1c0-9.7,6.4-16.1,16.2-16.1c9,0,18.1,0,27.1,0c0.7,0,1.4,0,2.2,0c0-10.2,0-20.2,0-30.2
			c-0.6-0.1-1.1-0.2-1.6-0.2c-9.2,0-18.5-0.1-27.7,0c-10.2,0.1-19.6,2.7-27.9,8.9c-9.7,7.2-15.9,16.6-17.8,28.5
			c-1,6.8-0.6,13.9-0.9,20.9c0,0.7,0,1.5,0,2.4c-7.7,0-15.2,0-22.7,0c0,10.2,0,20.3,0,30.5c7.6,0,15,0,22.5,0c0,30,0,59.8,0,89.8
			c-0.7-0.1-1.2-0.1-1.7-0.1c-12.2-1.7-23.8-5.2-34.9-10.4c-14.4-6.8-26.9-16.2-37.7-28c-8.6-9.4-15.5-19.8-20.8-31.3
			c-4.4-9.6-7.6-19.6-9.2-30.1C25.7,137.3,25.1,132.9,24.5,128.6z"/>
	</g>
</g>
</svg>
