<?xml version="1.0" encoding="utf-8"?>
<!-- Generator: Adobe Illustrator 19.0.0, SVG Export Plug-In . SVG Version: 6.00 Build 0)  -->
<svg version="1.1" id="Шар_1" xmlns="http://www.w3.org/2000/svg" xmlns:xlink="http://www.w3.org/1999/xlink" x="0px" y="0px"
	 viewBox="0 0 311.6 311.6" style="enable-background:new 0 0 311.6 311.6;" xml:space="preserve">
<g id="SIdnTh_1_">
	<g>
		<path d="M155.9,0c86,0.3,155.5,69.8,155.7,155.8c0.2,85.8-70.2,156.2-155.9,155.8C69.5,311.2,0.1,241.8,0,155.9
			C-0.1,70.1,70.3-0.3,155.9,0z M119.3,171.7c-2.8,0.3-6.1,0.4-9.3,0.9c-13.3,2.1-25,7.3-33.9,17.7C63,205.7,66.1,224,83.4,234.1
			c2.5,1.5,5.2,2.7,7.9,3.7c12.3,4.7,25,6.1,38.1,4.9c11-1,21.2-4.3,29.9-11.3c9.2-7.3,14.1-16.7,14.1-28.7
			c-0.1-14.2-6.5-24.6-17.7-32.7c-3.7-2.7-7.1-6-10.3-9.4c-3-3.3-2.7-6,0.4-9.2c1.8-1.8,3.8-3.5,5.8-5.1c12.3-9.9,17.6-22.4,13.9-38
			c-1.2-5.1-3.8-9.8-5.4-13.9c2.6-1.3,5.4-2.5,8.1-4.1c2.1-1.2,4-2.9,6-4.3c1.9-1.3,3.7-2.6,2.8-5.4c-0.9-2.7-3.2-2.6-5.5-2.6
			c-15.4,0-30.8,0-46.2,0c-11.8,0-22.5,3.7-31.7,11.1c-11,8.9-16.9,20.2-14.6,34.6c2.5,15.5,11.7,25.8,26.6,30.7
			c3.9,1.3,8.1,1.8,11.8,2.6C118.1,162,118.7,166.8,119.3,171.7z M220.2,160.7c9.1,0,17.8,0,26.4,0c3.7,0,5-1.4,5.1-5c0-2,0-4,0-5.9
			c0-3-1.5-4.5-4.6-4.4c-5.8,0-11.7,0-17.5,0c-3.1,0-6.2,0-9.4,0c0-4.9,0-9.2,0-13.5c0-4.4,0-8.9,0-13.3c0-3.1-1.3-4.8-4.6-4.8
			c-2.2,0.1-4.4,0-6.6,0c-2.9,0-4.2,1.5-4.2,4.3c0,3.6,0,7.2,0,10.8c0,5.3,0,10.7,0,15.8c-0.6,0.3-0.8,0.4-1,0.4
			c-6.8,0-13.5,0.1-20.3,0.1c-11-0.1-10.3-0.4-10.2,10.3c0,3.9,1.2,5.1,5.3,5.2c7.5,0,14.9,0,22.4,0c1.2,0,2.4,0,3.8,0
			c0,7.8,0,15,0,22.2c0,9.4,0,9.4,9.5,9.3c4.8,0,5.9-1.2,5.9-6C220.2,177.9,220.2,169.5,220.2,160.7z"/>
		<path d="M119.8,227.9c-6-0.1-14.3-2.1-20.9-8.8c-8.1-8.2-7.9-18.9,0.8-26.4c10-8.5,21.9-11.2,34.3-7.3c6.9,2.2,13,6.9,17.2,13.2
			c5.1,7.5,1.3,19.6-7.2,24.5C139,226.2,131.5,227.9,119.8,227.9z"/>
		<path d="M142.1,125.8c-0.5,2.1-1,6-2.5,9.5c-3.7,8.9-12.4,11.7-20.7,6.7c-8.3-5-12.6-12.8-14.8-22c-1.3-5.6-1.3-11.3,0.7-16.9
			c3.6-10.1,13.2-13.6,22.2-7.9C137.4,101.9,141.4,112.2,142.1,125.8z"/>
	</g>
</g>
</svg>
