<?xml version="1.0" encoding="utf-8"?>
<!-- Generator: Adobe Illustrator 19.0.0, SVG Export Plug-In . SVG Version: 6.00 Build 0)  -->
<svg version="1.1" id="Шар_1" xmlns="http://www.w3.org/2000/svg" xmlns:xlink="http://www.w3.org/1999/xlink" x="0px" y="0px"
	 viewBox="0 0 384.5 384.7" style="enable-background:new 0 0 384.5 384.7;" xml:space="preserve">
<g id="_x32_tNx0R_1_">
	<g>
		<path d="M192.2,0c106.3-0.1,192.1,85.4,192.3,191.7c0.2,106.5-85.8,193-192.2,193C85.9,384.7-0.1,298.4,0,191.8
			C0.1,85.6,85.8,0.1,192.2,0z M86.7,194.8c0,21.3-0.2,42.6,0,64c0.2,23.7,17.5,41,41,41.1c42.3,0.2,84.6,0.2,126.9,0
			c23.6-0.1,41-17.3,41.2-41c0.3-42.6,0.3-85.3,0-127.9c-0.2-23.1-16.5-40.1-39.6-40.4c-43.3-0.6-86.6-0.6-129.9,0
			c-23.6,0.3-39.5,17.6-39.7,41.3C86.5,152.9,86.7,173.9,86.7,194.8z"/>
		<path d="M107,174.3c10.7,0,20.1,0,30.2,0c-7.9,29.4-1.1,53.8,25,70c19.8,12.3,40.9,11.7,60.3-1.4c24.5-16.6,30.6-40.3,22.8-68.6
			c10,0,19.4,0,30.2,0c0,9.9,0,19.6,0,29.4c0,17.1,0.1,34.1,0,51.2c-0.1,17.1-6.9,24.2-23.6,24.2c-40.7,0.1-81.3,0.1-122,0
			c-14.2,0-22.5-6.8-22.7-20.2C106.6,231.1,107,203.2,107,174.3z"/>
		<path d="M191.3,231.6c-20.4,0-37.1-16.6-36.8-36.7c0.3-20.1,17.3-36.8,37.3-36.5c19.6,0.3,36.2,17,36.4,36.6
			C228.4,215,211.7,231.6,191.3,231.6z"/>
		<path d="M236.7,149.3c0-11.4,0-22.2,0-33.7c11.4,0,22.7,0,34.5,0c0,10.9,0,21.9,0,33.7C259.9,149.3,248.4,149.3,236.7,149.3z"/>
	</g>
</g>
</svg>
