<?xml version="1.0" encoding="utf-8"?>
<!-- Generator: Adobe Illustrator 19.0.0, SVG Export Plug-In . SVG Version: 6.00 Build 0)  -->
<svg version="1.1" id="Шар_1" xmlns="http://www.w3.org/2000/svg" xmlns:xlink="http://www.w3.org/1999/xlink" x="0px" y="0px"
	 viewBox="0 0 252.7 252.7" style="enable-background:new 0 0 252.7 252.7;" xml:space="preserve">
<g id="pNiZxV_1_">
	<g>
		<path d="M118,0c5.6,0,11.2,0,16.8,0c3.1,0.4,6.2,0.7,9.3,1.1c29.6,4.5,54.8,17.5,75.2,39.5c16.7,18,27.3,39.2,31.5,63.5
			c0.8,4.6,1.3,9.2,2,13.8c0,5.6,0,11.2,0,16.8c-0.4,3.1-0.7,6.2-1.1,9.2c-4.5,29.6-17.5,54.8-39.5,75.2
			c-18.1,16.8-39.4,27.4-63.7,31.6c-4.5,0.8-9.1,1.3-13.6,1.9c-5.6,0-11.2,0-16.8,0c-3.1-0.4-6.2-0.7-9.3-1.1
			c-29.6-4.5-54.8-17.5-75.2-39.5C16.8,194,6.2,172.8,2,148.6c-0.8-4.6-1.3-9.2-2-13.8c0-5.6,0-11.2,0-16.8c0.4-3.1,0.7-6.2,1.1-9.2
			c4.5-29.6,17.5-54.8,39.5-75.2C58.7,16.8,80,6.2,104.4,1.9C108.9,1.2,113.4,0.6,118,0z M96.6,81.8c0.4,0.3,0.6,0.5,0.8,0.6
			c0.5,0.2,1.1,0.4,1.6,0.5c4,1,6.7,3.4,7.3,7.4c0.7,4.2,1.2,8.5,1.1,12.7c-0.1,5.8-0.5,11.7-1.5,17.4c-1,5.2-4.2,6-8.1,2.5
			c-2.3-2-4.2-4.6-6-7.1c-6.6-9.4-11.9-19.5-16.2-30.1c-1.8-4.4-4.8-6.3-9.5-6.2c-7.3,0.2-14.6,0-22,0.1c-6.6,0-8,2.3-5.2,8.2
			c4.6,9.5,9,19,14,28.2c7.9,14.6,16.6,28.8,28.3,40.8c15,15.4,33.4,21.4,54.6,19.3c3.1-0.3,4.5-1.7,5.1-4.8
			c0.4-2.1,0.2-4.3,0.8-6.3c0.9-3.3,1.8-6.6,3.3-9.6c1.4-2.7,3.7-3.1,6.3-1.7c1.8,1,3.5,2.2,4.9,3.6c3.7,3.8,7.1,7.7,10.8,11.6
			c3.8,4,8.2,7.4,14,7.5c9.7,0.2,19.4,0.1,29.1,0c2.4,0,4.2-1.6,4.5-3.8c0.2-2,0-4.3-0.8-6.2c-0.9-2.2-2.3-4.3-3.9-6
			c-6.2-6.7-12.5-13.3-18.9-19.7c-6.1-6.1-6.4-8.8-1.4-15.7c5.5-7.5,11.1-14.9,16.5-22.4c3.8-5.3,7.4-10.9,8.8-17.5
			c0.5-2.4-0.3-4-2.7-4.7c-1.9-0.5-3.9-0.9-5.8-0.9c-8.5-0.1-16.9-0.1-25.4-0.1c-5.2,0-6.5,1.1-8.8,5.9c-3.7,7.8-7.2,15.7-11.5,23.1
			c-3.1,5.3-7.2,10-11.2,14.6c-2.4,2.8-5.5,2.2-6.9-1.1c-1-2.3-1.6-4.9-1.6-7.3c-0.2-8.5-0.1-17.1-0.1-25.7c0-2.2,0-4.5-0.3-6.6
			c-0.5-4-2.9-6.2-7-6.2c-9.3-0.1-18.6-0.1-27.9,0C101.7,76.1,98.6,77.9,96.6,81.8z"/>
	</g>
</g>
</svg>
