<svg xmlns="http://www.w3.org/2000/svg" viewBox="0 0 267.3 241.6"><path d="M24.5 128.6v-14.7c.1-.6.3-1.1.4-1.7.9-6.1 1.6-12.2 2.8-18.2 2.7-13 7.9-25.1 14.9-36.4 7.5-12.1 16.9-22.6 28-31.5 13.3-10.5 28.1-18 44.5-22.3C128.9.2 142.9-.9 157.2.4c16.5 1.5 32 6.2 46.6 14.1 16.4 8.9 30.1 21 40.9 36.3 11.6 16.3 18.9 34.4 21.4 54.4.4 2.9.8 5.7 1.2 8.6v14.7c-.1.6-.3 1.3-.4 1.9-.6 4.5-.9 9-1.8 13.4-2.9 15-8.3 29-16.5 41.9-10.1 16.1-23.3 29.1-39.4 39-13.6 8.4-28.4 13.9-44.2 16.2-1.2.2-2.5.4-3.8.6v-89.8h41.6c1.3-10.2 2.5-20.3 3.8-30.5h-45.5v-14.1c0-9.7 6.4-16.1 16.2-16.1h29.3V60.8c-.6-.1-1.1-.2-1.6-.2-9.2 0-18.5-.1-27.7 0-10.2.1-19.6 2.7-27.9 8.9-9.7 7.2-15.9 16.6-17.8 28.5-1 6.8-.6 13.9-.9 20.9v2.4H108v30.5h22.5v89.8c-.7-.1-1.2-.1-1.7-.1-12.2-1.7-23.8-5.2-34.9-10.4-14.4-6.8-26.9-16.2-37.7-28-8.6-9.4-15.5-19.8-20.8-31.3-4.4-9.6-7.6-19.6-9.2-30.1-.5-4.4-1.1-8.8-1.7-13.1z"/></svg>