<svg xmlns="http://www.w3.org/2000/svg" viewBox="0 0 311.6 311.6"><path d="M155.9 0c86 .3 155.5 69.8 155.7 155.8.2 85.8-70.2 156.2-155.9 155.8C69.5 311.2.1 241.8 0 155.9-.1 70.1 70.3-.3 155.9 0zm-36.6 171.7c-2.8.3-6.1.4-9.3.9-13.3 2.1-25 7.3-33.9 17.7-13.1 15.4-10 33.7 7.3 43.8 2.5 1.5 5.2 2.7 7.9 3.7 12.3 4.7 25 6.1 38.1 4.9 11-1 21.2-4.3 29.9-11.3 9.2-7.3 14.1-16.7 14.1-28.7-.1-14.2-6.5-24.6-17.7-32.7-3.7-2.7-7.1-6-10.3-9.4-3-3.3-2.7-6 .4-9.2 1.8-1.8 3.8-3.5 5.8-5.1 12.3-9.9 17.6-22.4 13.9-38-1.2-5.1-3.8-9.8-5.4-13.9 2.6-1.3 5.4-2.5 8.1-4.1 2.1-1.2 4-2.9 6-4.3 1.9-1.3 3.7-2.6 2.8-5.4-.9-2.7-3.2-2.6-5.5-2.6h-46.2c-11.8 0-22.5 3.7-31.7 11.1-11 8.9-16.9 20.2-14.6 34.6 2.5 15.5 11.7 25.8 26.6 30.7 3.9 1.3 8.1 1.8 11.8 2.6.7 5 1.3 9.8 1.9 14.7zm100.9-11h26.4c3.7 0 5-1.4 5.1-5v-5.9c0-3-1.5-4.5-4.6-4.4h-26.9v-26.8c0-3.1-1.3-4.8-4.6-4.8-2.2.1-4.4 0-6.6 0-2.9 0-4.2 1.5-4.2 4.3v26.6c-.6.3-.8.4-1 .4-6.8 0-13.5.1-20.3.1-11-.1-10.3-.4-10.2 10.3 0 3.9 1.2 5.1 5.3 5.2h26.2v22.2c0 9.4 0 9.4 9.5 9.3 4.8 0 5.9-1.2 5.9-6v-25.5z"/><path d="M119.8 227.9c-6-.1-14.3-2.1-20.9-8.8-8.1-8.2-7.9-18.9.8-26.4 10-8.5 21.9-11.2 34.3-7.3 6.9 2.2 13 6.9 17.2 13.2 5.1 7.5 1.3 19.6-7.2 24.5-5 3.1-12.5 4.8-24.2 4.8zm22.3-102.1c-.5 2.1-1 6-2.5 9.5-3.7 8.9-12.4 11.7-20.7 6.7-8.3-5-12.6-12.8-14.8-22-1.3-5.6-1.3-11.3.7-16.9C108.4 93 118 89.5 127 95.2c10.4 6.7 14.4 17 15.1 30.6z"/></svg>