<svg xmlns="http://www.w3.org/2000/svg" viewBox="0 0 384.5 384.7"><path d="M192.2 0c106.3-.1 192.1 85.4 192.3 191.7.2 106.5-85.8 193-192.2 193C85.9 384.7-.1 298.4 0 191.8.1 85.6 85.8.1 192.2 0zM86.7 194.8c0 21.3-.2 42.6 0 64 .2 23.7 17.5 41 41 41.1 42.3.2 84.6.2 126.9 0 23.6-.1 41-17.3 41.2-41 .3-42.6.3-85.3 0-127.9-.2-23.1-16.5-40.1-39.6-40.4-43.3-.6-86.6-.6-129.9 0-23.6.3-39.5 17.6-39.7 41.3-.1 21 .1 42 .1 62.9z"/><path d="M107 174.3h30.2c-7.9 29.4-1.1 53.8 25 70 19.8 12.3 40.9 11.7 60.3-1.4 24.5-16.6 30.6-40.3 22.8-68.6h30.2v29.4c0 17.1.1 34.1 0 51.2s-6.9 24.2-23.6 24.2c-40.7.1-81.3.1-122 0-14.2 0-22.5-6.8-22.7-20.2-.6-27.8-.2-55.7-.2-84.6z"/><path d="M191.3 231.6c-20.4 0-37.1-16.6-36.8-36.7.3-20.1 17.3-36.8 37.3-36.5 19.6.3 36.2 17 36.4 36.6.2 20-16.5 36.6-36.9 36.6zm45.4-82.3v-33.7h34.5v33.7h-34.5z"/></svg>