<svg xmlns="http://www.w3.org/2000/svg" viewBox="-487 240.3 334 245.4"><path d="M-317.6 397.4c-5.9 5.9-5.9 15.4 0 21.2 2.9 2.9 6.8 4.4 10.6 4.4s7.7-1.5 10.6-4.4l45-45c.3-.3.7-.7 1-1.1.1-.1.1-.2.2-.3.2-.3.5-.6.7-.9.1-.1.1-.2.2-.3.2-.3.4-.7.6-1 0-.1.1-.1.1-.2.2-.4.4-.8.5-1.1v-.1c.2-.4.3-.8.4-1.3v-.1c.1-.4.2-.8.3-1.3 0-.1 0-.2.1-.4.1-.4.1-.7.2-1.1.1-.5.1-1 .1-1.5s0-1-.1-1.5c0-.4-.1-.7-.2-1.1 0-.1 0-.2-.1-.4-.1-.4-.2-.9-.3-1.3v-.1c-.1-.4-.3-.9-.5-1.3v-.1c-.2-.4-.3-.8-.5-1.2 0-.1-.1-.1-.1-.2-.2-.3-.4-.7-.6-1-.1-.1-.1-.2-.2-.2-.2-.3-.4-.6-.7-.9-.1-.1-.1-.2-.2-.3-.3-.4-.6-.7-1-1.1l-45-45c-5.9-5.9-15.4-5.9-21.2 0s-5.9 15.4 0 21.2l19.4 19.4H-472c-8.3 0-15 6.7-15 15s6.7 15 15 15h173.8l-19.4 19.6z"/><path d="M-279.7 240.3c-40.9 0-79 20.3-101.9 54.3-4.6 6.9-2.8 16.2 4.1 20.8 6.9 4.6 16.2 2.8 20.8-4.1 17.3-25.7 46.1-41.1 77-41.1 51.1 0 92.7 41.6 92.7 92.7s-41.6 92.7-92.7 92.7c-30.8 0-59.6-15.3-76.9-40.9-4.6-6.9-14-8.7-20.8-4-6.9 4.6-8.7 14-4 20.8 22.9 33.9 60.9 54.1 101.7 54.1 67.7 0 122.7-55 122.7-122.7s-55-122.6-122.7-122.6z"/></svg>