<svg xmlns="http://www.w3.org/2000/svg" viewBox="0 0 252.7 252.7"><path d="M118 0h16.8c3.1.4 6.2.7 9.3 1.1 29.6 4.5 54.8 17.5 75.2 39.5 16.7 18 27.3 39.2 31.5 63.5.8 4.6 1.3 9.2 2 13.8v16.8c-.4 3.1-.7 6.2-1.1 9.2-4.5 29.6-17.5 54.8-39.5 75.2-18.1 16.8-39.4 27.4-63.7 31.6-4.5.8-9.1 1.3-13.6 1.9h-16.8c-3.1-.4-6.2-.7-9.3-1.1C79.2 247 54 234 33.6 212 16.8 194 6.2 172.8 2 148.6c-.8-4.6-1.3-9.2-2-13.8V118c.4-3.1.7-6.2 1.1-9.2C5.6 79.2 18.6 54 40.6 33.6 58.7 16.8 80 6.2 104.4 1.9c4.5-.7 9-1.3 13.6-1.9zM96.6 81.8c.4.3.6.5.8.6.5.2 1.1.4 1.6.5 4 1 6.7 3.4 7.3 7.4.7 4.2 1.2 8.5 1.1 12.7-.1 5.8-.5 11.7-1.5 17.4-1 5.2-4.2 6-8.1 2.5-2.3-2-4.2-4.6-6-7.1-6.6-9.4-11.9-19.5-16.2-30.1-1.8-4.4-4.8-6.3-9.5-6.2-7.3.2-14.6 0-22 .1-6.6 0-8 2.3-5.2 8.2 4.6 9.5 9 19 14 28.2 7.9 14.6 16.6 28.8 28.3 40.8 15 15.4 33.4 21.4 54.6 19.3 3.1-.3 4.5-1.7 5.1-4.8.4-2.1.2-4.3.8-6.3.9-3.3 1.8-6.6 3.3-9.6 1.4-2.7 3.7-3.1 6.3-1.7 1.8 1 3.5 2.2 4.9 3.6 3.7 3.8 7.1 7.7 10.8 11.6 3.8 4 8.2 7.4 14 7.5 9.7.2 19.4.1 29.1 0 2.4 0 4.2-1.6 4.5-3.8.2-2 0-4.3-.8-6.2-.9-2.2-2.3-4.3-3.9-6-6.2-6.7-12.5-13.3-18.9-19.7-6.1-6.1-6.4-8.8-1.4-15.7 5.5-7.5 11.1-14.9 16.5-22.4 3.8-5.3 7.4-10.9 8.8-17.5.5-2.4-.3-4-2.7-4.7-1.9-.5-3.9-.9-5.8-.9-8.5-.1-16.9-.1-25.4-.1-5.2 0-6.5 1.1-8.8 5.9-3.7 7.8-7.2 15.7-11.5 23.1-3.1 5.3-7.2 10-11.2 14.6-2.4 2.8-5.5 2.2-6.9-1.1-1-2.3-1.6-4.9-1.6-7.3-.2-8.5-.1-17.1-.1-25.7 0-2.2 0-4.5-.3-6.6-.5-4-2.9-6.2-7-6.2-9.3-.1-18.6-.1-27.9 0-4 0-7.1 1.8-9.1 5.7z"/></svg>